<?xml version="1.0" encoding="UTF-8" standalone="no"?>
<!-- Created with Inkscape (http://www.inkscape.org/) -->

<svg
   xmlns:dc="http://purl.org/dc/elements/1.1/"
   xmlns:cc="http://creativecommons.org/ns#"
   xmlns:rdf="http://www.w3.org/1999/02/22-rdf-syntax-ns#"
   xmlns:svg="http://www.w3.org/2000/svg"
   xmlns="http://www.w3.org/2000/svg"
   xmlns:sodipodi="http://sodipodi.sourceforge.net/DTD/sodipodi-0.dtd"
   xmlns:inkscape="http://www.inkscape.org/namespaces/inkscape"
   width="175.36403mm"
   height="77.382317mm"
   viewBox="0 0 175.36403 77.382317"
   version="1.1"
   id="svg8"
   inkscape:version="0.92.3 (2405546, 2018-03-11)"
   sodipodi:docname="block-siren.svg">
  <defs
     id="defs2" />
  <sodipodi:namedview
     id="base"
     pagecolor="#ffffff"
     bordercolor="#666666"
     borderopacity="1.0"
     inkscape:pageopacity="0.0"
     inkscape:pageshadow="2"
     inkscape:zoom="0.49497475"
     inkscape:cx="395.73902"
     inkscape:cy="66.216507"
     inkscape:document-units="mm"
     inkscape:current-layer="layer2"
     showgrid="false"
     inkscape:window-width="1853"
     inkscape:window-height="1025"
     inkscape:window-x="67"
     inkscape:window-y="27"
     inkscape:window-maximized="1"
     inkscape:snap-global="false"
     fit-margin-top="0"
     fit-margin-left="0"
     fit-margin-right="0"
     fit-margin-bottom="0" />
  <metadata
     id="metadata5">
    <rdf:RDF>
      <cc:Work
         rdf:about="">
        <dc:format>image/svg+xml</dc:format>
        <dc:type
           rdf:resource="http://purl.org/dc/dcmitype/StillImage" />
        <dc:title></dc:title>
      </cc:Work>
    </rdf:RDF>
  </metadata>
  <g
     inkscape:groupmode="layer"
     id="layer2"
     inkscape:label="layer-1"
     style="display:inline"
     transform="translate(11.797529,-17.699748)">
    <rect
       ry="5.8717241"
       y="18.416172"
       x="38.405796"
       height="75.949471"
       width="114.37257"
       id="rect861"
       style="fill:#c0dfeb;fill-opacity:1;stroke:#777777;stroke-width:1.43284893;stroke-linejoin:round;stroke-miterlimit:4;stroke-dasharray:none;stroke-opacity:1" />
    <path
       inkscape:connector-curvature="0"
       id="path865"
       d="m 28.511227,75.474784 h 9.829162"
       style="fill:none;stroke:#777777;stroke-width:2.14454436;stroke-linecap:butt;stroke-linejoin:miter;stroke-miterlimit:4;stroke-dasharray:none;stroke-opacity:1" />
    <path
       inkscape:connector-curvature="0"
       id="path865-3"
       d="M 8.332378,36.924064 H 38.34039"
       style="display:inline;fill:none;stroke:#777777;stroke-width:2.14454436;stroke-linecap:butt;stroke-linejoin:miter;stroke-miterlimit:4;stroke-dasharray:none;stroke-opacity:1" />
    <path
       inkscape:connector-curvature="0"
       id="path865-3-6"
       d="M 152.84377,56.199429 H 163.5665"
       style="display:inline;fill:none;stroke:#777777;stroke-width:2.23990369;stroke-linecap:butt;stroke-linejoin:miter;stroke-miterlimit:4;stroke-dasharray:none;stroke-opacity:1" />
    <g
       id="g873"
       transform="matrix(0.26458333,0,0,0.26458333,56.709354,27.529195)">
      <g
         transform="translate(-4.9490322,-27.776341)"
         id="g16">
</g>
      <g
         transform="translate(-4.9490322,-27.776341)"
         id="g18">
</g>
      <g
         transform="translate(-4.9490322,-27.776341)"
         id="g20">
</g>
      <g
         transform="translate(-4.9490322,-27.776341)"
         id="g22">
</g>
      <g
         transform="translate(-4.9490322,-27.776341)"
         id="g24">
</g>
      <g
         transform="translate(-4.9490322,-27.776341)"
         id="g26">
</g>
      <g
         transform="translate(-4.9490322,-27.776341)"
         id="g28">
</g>
      <g
         transform="translate(-4.9490322,-27.776341)"
         id="g30">
</g>
      <g
         transform="translate(-4.9490322,-27.776341)"
         id="g32">
</g>
      <g
         transform="translate(-4.9490322,-27.776341)"
         id="g34">
</g>
      <g
         transform="translate(-4.9490322,-27.776341)"
         id="g36">
</g>
      <g
         transform="translate(-4.9490322,-27.776341)"
         id="g38">
</g>
      <g
         transform="translate(-4.9490322,-27.776341)"
         id="g40">
</g>
      <g
         transform="translate(-4.9490322,-27.776341)"
         id="g42">
</g>
      <g
         transform="translate(-4.9490322,-27.776341)"
         id="g44">
</g>
      <g
         transform="translate(-4.9490322,-27.776341)"
         inkscape:label="Layer 1"
         id="layer1-3">
        <path
           style="fill:#0000ff"
           id="path2"
           d="m 43.752277,224.53868 36.819,-9.165 -23.051,-92.585 -36.819,9.165 c -11.1300001,2.765 -17.9010001,14.038 -15.1330001,25.166 l 13.0180001,52.272 c 2.768,11.135 14.035,17.918 25.166,15.147 z"
           inkscape:connector-curvature="0" />
        <path
           style="fill:#0000ff"
           id="path4"
           d="m 159.20128,56.472684 c -2.768,-11.123 -11.602,-13.566 -19.716,-5.468 l -68.603003,68.459996 23.05,92.579 93.748003,31.354 c 10.874,3.635 17.45,-2.438 14.675,-13.566 z"
           inkscape:connector-curvature="0" />
        <path
           style="fill:#0000ff"
           id="path6"
           d="m 207.35228,149.90768 72.358,-18.005 c 7.104,-1.766 11.429,-8.958 9.657,-16.062 -1.766,-7.104 -8.932,-11.443 -16.058,-9.662 l -72.358,18.015 c -7.104,1.766 -11.429,8.953 -9.663,16.057 1.502,6.038 6.913,10.062 12.857,10.062 1.048,-0.007 2.13,-0.137 3.207,-0.405 z"
           inkscape:connector-curvature="0" />
        <path
           style="fill:#0000ff"
           id="path8"
           d="m 194.88828,106.79868 c 3.562,0 7.104,-1.424 9.719,-4.235 l 48.752,-52.511996 c 4.981,-5.364 4.671,-13.753 -0.693,-18.734 -5.359,-4.981 -13.748,-4.671 -18.734,0.699 l -48.753,52.506 c -4.981,5.37 -4.671,13.758 0.693,18.733996 2.549,2.372 5.79,3.542 9.016,3.542 z"
           inkscape:connector-curvature="0" />
        <path
           style="fill:#0000ff"
           id="path10"
           d="m 288.06828,189.47268 -67.688,-23.514 c -6.907,-2.408 -14.468,1.253 -16.87,8.171 -2.402,6.913 1.248,14.468 8.171,16.87 l 67.684,23.524 c 1.444,0.502 2.91,0.74 4.354,0.74 5.484,0 10.615,-3.433 12.516,-8.911 2.407,-6.922 -1.243,-14.478 -8.167,-16.88 z"
           inkscape:connector-curvature="0" />
      </g>
    </g>
    <rect
       style="display:inline;opacity:1;fill:#fbfbc9;fill-opacity:1;stroke:#777777;stroke-width:1.32461941;stroke-linecap:round;stroke-linejoin:round;stroke-miterlimit:4;stroke-dasharray:none;stroke-opacity:1"
       id="rect948"
       width="19.544025"
       height="20.017101"
       x="-11.13522"
       y="27.14879"
       ry="4.7307835" />
    <path
       style="display:inline;fill:none;fill-opacity:1;stroke:#58595a;stroke-width:0.99346447;stroke-linecap:butt;stroke-linejoin:miter;stroke-miterlimit:4;stroke-dasharray:none;stroke-opacity:1"
       d="m 38.107851,29.164525 11.353882,8.988488 -11.353882,9.461566"
       id="path866"
       inkscape:connector-curvature="0" />
  </g>
  <style
     type="text/css"
     id="style2">
	.st0{display:none;}
	.st1{fill:none;stroke:#303030;stroke-width:0.7;stroke-linecap:round;stroke-linejoin:round;stroke-miterlimit:10;}
	.st2{fill:#303030;}
</style>
</svg>
