<?xml version="1.0" encoding="UTF-8" standalone="no"?>
<svg
   xmlns:dc="http://purl.org/dc/elements/1.1/"
   xmlns:cc="http://creativecommons.org/ns#"
   xmlns:rdf="http://www.w3.org/1999/02/22-rdf-syntax-ns#"
   xmlns:svg="http://www.w3.org/2000/svg"
   xmlns="http://www.w3.org/2000/svg"
   xmlns:xlink="http://www.w3.org/1999/xlink"
   xmlns:sodipodi="http://sodipodi.sourceforge.net/DTD/sodipodi-0.dtd"
   xmlns:inkscape="http://www.inkscape.org/namespaces/inkscape"
   id="svg8"
   version="1.1"
   viewBox="0 0 315.54596 128.12211"
   height="52.274185mm"
   width="87.841667mm"
   sodipodi:docname="puerta inversora bus(Xbits).svg"
   inkscape:version="0.92.3 (d244b95, 2018-08-02)">
  <sodipodi:namedview
     pagecolor="#ffffff"
     bordercolor="#666666"
     borderopacity="1"
     objecttolerance="10"
     gridtolerance="10"
     guidetolerance="10"
     inkscape:pageopacity="0"
     inkscape:pageshadow="2"
     inkscape:window-width="1920"
     inkscape:window-height="1056"
     id="namedview120"
     showgrid="false"
     inkscape:zoom="1.28"
     inkscape:cx="168.96483"
     inkscape:cy="6.7540183"
     inkscape:window-x="0"
     inkscape:window-y="24"
     inkscape:window-maximized="1"
     inkscape:current-layer="g4792"
     fit-margin-top="0"
     fit-margin-left="0"
     fit-margin-right="0"
     fit-margin-bottom="0"
     showborder="true"
     viewbox-width="254.39"
     viewbox-height="225.66" />
  <defs
     id="defs2">
    <linearGradient
       inkscape:collect="always"
       id="linearGradient1166">
      <stop
         style="stop-color:#fd00c5;stop-opacity:1;"
         offset="0"
         id="stop1162" />
      <stop
         style="stop-color:#fd00c5;stop-opacity:0;"
         offset="1"
         id="stop1164" />
    </linearGradient>
    <linearGradient
       inkscape:collect="always"
       xlink:href="#linearGradient1166"
       id="linearGradient1168"
       x1="13.49775"
       y1="181.11896"
       x2="81.085709"
       y2="183.81973"
       gradientUnits="userSpaceOnUse"
       gradientTransform="matrix(1.9861189,0,0,2.8628734,-52.991126,-533.27158)" />
  </defs>
  <metadata
     id="metadata5">
    <rdf:RDF>
      <cc:Work
         rdf:about="">
        <dc:format>image/svg+xml</dc:format>
        <dc:type
           rdf:resource="http://purl.org/dc/dcmitype/StillImage" />
        <dc:title></dc:title>
      </cc:Work>
    </rdf:RDF>
  </metadata>
  <flowRoot
     xml:space="preserve"
     id="flowRoot4661"
     style="font-style:normal;font-weight:normal;font-size:32px;line-height:1.25;font-family:sans-serif;text-align:center;letter-spacing:0px;word-spacing:0px;text-anchor:middle;fill:#000000;fill-opacity:1;stroke:none"
     transform="matrix(0.26458333,0,0,0.26458333,278.47633,157.69361)"><flowRegion
       id="flowRegion4663"
       style="font-size:32px"><rect
         id="rect4665"
         width="478.81232"
         height="80.812202"
         x="163.64471"
         y="625.52466"
         style="font-size:32px" /></flowRegion><flowPara
       id="flowPara4667" /></flowRoot>  <g
     id="g4792"
     transform="translate(278.47633,157.69361)">
    <text
       xml:space="preserve"
       style="font-style:normal;font-weight:normal;font-size:14.11111069px;line-height:1.25;font-family:sans-serif;text-align:center;letter-spacing:0px;word-spacing:0px;text-anchor:middle;fill:#000000;fill-opacity:1;stroke:none;stroke-width:0.26458335"
       x="97.09597"
       y="170.11002"
       id="text165"><tspan
         sodipodi:role="line"
         id="tspan163"
         x="97.09597"
         y="182.59505"
         style="stroke-width:0.26458335" /></text>
    <g
       id="g3327">
      <g
         transform="translate(155.18898,5.1977168)"
         id="g3238">
        <g
           style="fill:#0400ff;fill-opacity:0.80459768"
           transform="matrix(5.2298181,0,0,2.8628734,-300.96209,-329.08558)"
           id="g63">
          <path
             style="fill:#0400ff;fill-opacity:0.80459768;stroke:none;stroke-width:0.20193729"
             d="m -25.309797,74.5397 c -0.06118,-0.137401 -0.08272,-1.002368 -0.04785,-1.922147 l 0.06339,-1.672323 H 4.8336677 34.961588 v 1.874622 1.874623 l -30.0800696,0.04753 c -24.8968144,0.03933 -30.0992414,0.0045 -30.1913154,-0.2023 z"
             id="path41"
             inkscape:connector-curvature="0" />
          <path
             id="path45"
             d="m -25.309797,59.384957 c -0.06118,-0.137401 -0.08272,-1.002368 -0.04785,-1.922147 l 0.06339,-1.672323 H 4.8336677 34.961588 v 1.874622 1.874622 l -30.0800696,0.04753 c -24.8968144,0.03933 -30.0992414,0.0045 -30.1913154,-0.202301 z"
             style="fill:#0400ff;fill-opacity:0.80459768;stroke:none;stroke-width:0.20193729"
             inkscape:connector-curvature="0" />
          <path
             style="fill:#0400ff;fill-opacity:0.80459768;stroke:none;stroke-width:0.20193729"
             d="m -25.309798,89.694436 c -0.06118,-0.137401 -0.08272,-1.002368 -0.04785,-1.922147 l 0.06339,-1.672323 H 4.8336686 34.961588 v 1.874622 1.874623 l -30.0800696,0.04753 c -24.8968144,0.03933 -30.0992414,0.0045 -30.1913164,-0.2023 z"
             id="path49"
             inkscape:connector-curvature="0" />
          <path
             id="path53"
             d="m -25.309797,104.84918 c -0.06118,-0.13739 -0.08272,-1.00237 -0.04785,-1.92214 l 0.06339,-1.67232 H 4.8336686 34.961588 v 1.87461 1.87463 l -30.0800696,0.0475 c -24.8968144,0.0394 -30.0992414,0.004 -30.1913154,-0.20229 z"
             style="fill:#0400ff;fill-opacity:0.80459768;stroke:none;stroke-width:0.20193729"
             inkscape:connector-curvature="0" />
        </g>
        <g
           id="g3226"
           transform="translate(-307.40781,-97.845424)">
          <path
             inkscape:transform-center-y="-0.72830117"
             inkscape:transform-center-x="5.1778049"
             style="fill:#e2ff00;fill-opacity:1;stroke:#000000;stroke-width:6.09957743;stroke-miterlimit:4;stroke-dasharray:none;stroke-opacity:1"
             d="m 155.70368,18.958657 c -3.70562,-1.144135 -6.48674,-2.8475 -9.42355,-5.771678 -2.36838,-2.358194 -4.69818,-6.312339 -5.47621,-9.2942356 -0.61027,-2.3388778 -0.53085,-7.4170007 0.15355,-9.8186357 2.88151,-10.1115187 13.89525,-17.1128017 24.82187,-15.7789447 15.98529,1.951394 25.09829,17.0967367 18.09631,30.0751426 -2.4979,4.6299184 -8.24749,9.1630554 -13.74624,10.8378464 -1.83827,0.55989 -3.21713,0.699612 -6.84775,0.693876 -3.97951,-0.0071 -4.92379,-0.123836 -7.57798,-0.943371 z"
             id="path30"
             inkscape:connector-curvature="0" />
          <g
             id="g3220">
            <path
               style="fill:none;stroke:#000000;stroke-width:9.57324696;stroke-linecap:butt;stroke-linejoin:round;stroke-miterlimit:4;stroke-dasharray:none;stroke-opacity:1"
               d="M -24.705519,88.11887 -25.44805,-90.088561 134.19611,-0.9848458 Z"
               id="path3206"
               inkscape:connector-curvature="0"
               sodipodi:nodetypes="cccc" />
            <path
               style="fill:#ffffff;fill-opacity:1;stroke:none;stroke-width:0.78125"
               d="m 444.88759,113.2936 c -0.13187,-46.475213 -0.23976,-84.537332 -0.23976,-84.582492 0,-0.08055 147.08966,82.116422 149.84015,83.734002 1.16691,0.68627 -8.81168,6.55103 -59.375,34.89667 -33.42771,18.73947 -67.34945,37.75736 -75.38164,42.26198 l -14.60399,8.19021 z"
               id="path3216"
               inkscape:connector-curvature="0"
               transform="matrix(0.95043964,0,0,0.95043964,-442.85356,-108.5463)" />
          </g>
        </g>
      </g>
      <text
         transform="scale(1.0254952,0.97513864)"
         id="text3052"
         y="-67.19207"
         x="-129.43086"
         style="font-style:normal;font-weight:normal;font-size:79.08782959px;line-height:1.25;font-family:sans-serif;text-align:center;letter-spacing:0px;word-spacing:0px;text-anchor:middle;fill:#000000;fill-opacity:1;stroke:none;stroke-width:0.92681044"
         xml:space="preserve"><tspan
           style="font-size:79.08782959px;stroke-width:0.92681044"
           y="-67.19207"
           x="-129.43086"
           id="tspan3050"
           sodipodi:role="line">X</tspan></text>
    </g>
  </g>
</svg>
